<?xml version="1.0" encoding="UTF-8" standalone="no"?>
<svg width="60px" height="54px" viewBox="0 0 60 54" version="1.1" xmlns="http://www.w3.org/2000/svg" xmlns:xlink="http://www.w3.org/1999/xlink" xmlns:sketch="http://www.bohemiancoding.com/sketch/ns">
    <title>Imported Layers</title>
    <description>Created with Sketch (http://www.bohemiancoding.com/sketch)</description>
    <defs></defs>
    <g id="Page-1" stroke="none" stroke-width="1" fill="none" fill-rule="evenodd" sketch:type="MSPage">
        <g id="iePayback" sketch:type="MSArtboardGroup" transform="translate(-574.000000, -781.000000)" stroke="#176437" stroke-width="2" stroke-linecap="round" stroke-linejoin="round">
            <g id="Form" sketch:type="MSLayerGroup" transform="translate(261.000000, 317.000000)">
                <g id="versions" transform="translate(40.000000, 267.000000)" sketch:type="MSShapeGroup">
                    <g transform="translate(0.000000, 46.000000)" id="Rectangle-6-copy-+-11">
                        <g transform="translate(254.000000, 137.000000)">
                            <g id="11" transform="translate(20.000000, 15.000000)">
                                <path d="M32.786,7.077 C32.786,10.986 29.618,14.155 25.709,14.155 C21.8,14.155 18.632,10.986 18.632,7.077 C18.632,3.169 21.8,0 25.709,0 C29.618,0 32.786,3.169 32.786,7.077 L32.786,7.077 Z M24.416,14.047 C24.416,14.047 28.282,26.409 32.08,29.525 C32.629,29.975 33.293,30.269 33.996,30.37 L40.114,31.245 C41.395,31.429 42.503,32.236 43.068,33.4 L44.901,37.173 C46.751,40.979 52.266,38.075 50.523,34.455 L47.372,27.906 C46.874,26.871 45.946,26.109 44.835,25.822 L40.515,24.706 C39.375,24.411 38.43,23.618 37.942,22.547 L36.095,18.492 C35.477,17.137 35.686,15.549 36.632,14.399 L43.214,6.399 C45.799,3.257 41,-0.494 38.376,2.448 L31.998,10.254 L24.416,14.047 Z M38.802,23.709 L48.754,19.25 C49.307,19.002 49.91,18.886 50.516,18.913 L54.549,19.172 C58.622,19.348 58.43,25.653 54.201,25.358 L52.022,25.069 C51.434,25.028 50.844,25.121 50.298,25.341 L46.625,26.839 L38.802,23.709 Z M39.208,11.205 C39.208,11.205 42.648,10.566 46.286,9.846 C49.924,9.126 51.16,14.691 47.395,15.439 L35.833,17.756 L39.208,11.205 Z M0,11.506 L7,11.506 L7,19.506 L0,11.506 Z M7,19.506 L14,19.506 L14,27.506 L7,19.506 Z M14,27.506 L21,27.506 L21,35.506 L14,27.506 Z M21,35.506 L28,35.506 L28,43.506 L21,35.506 Z M28,43.506 L35,43.506 L35,51.506 L28,43.506 Z" id="Imported-Layers"></path>
                            </g>
                        </g>
                    </g>
                </g>
            </g>
        </g>
    </g>
</svg>