<?xml version="1.0" encoding="UTF-8" standalone="no"?>
<svg width="50px" height="60px" viewBox="0 0 50 60" version="1.1" xmlns="http://www.w3.org/2000/svg" xmlns:xlink="http://www.w3.org/1999/xlink" xmlns:sketch="http://www.bohemiancoding.com/sketch/ns">
    <title>Imported Layers</title>
    <description>Created with Sketch (http://www.bohemiancoding.com/sketch)</description>
    <defs></defs>
    <g id="Page-1" stroke="none" stroke-width="1" fill="none" fill-rule="evenodd" sketch:type="MSPage">
        <g id="iePayback" sketch:type="MSArtboardGroup" transform="translate(-322.000000, -641.000000)" stroke="#176437" stroke-width="2" stroke-linecap="round" stroke-linejoin="round">
            <g id="Form" sketch:type="MSLayerGroup" transform="translate(261.000000, 317.000000)">
                <g id="versions" transform="translate(40.000000, 267.000000)" sketch:type="MSShapeGroup">
                    <g transform="translate(0.000000, 46.000000)" id="Rectangle-6-+-5">
                        <g>
                            <g id="5" transform="translate(22.000000, 12.000000)">
                                <path d="M30,41 L39,50 C40.104,51.104 40.104,52.896 39,54 C37.896,55.105 36.104,55.105 35,54 L24,43 L13,54 C11.896,55.105 10.105,55.105 9,54 C7.896,52.896 7.896,51.104 9,50 L18,41 L18,34 L20,36 L22,34 L24,36 L26,34 L28,36 L30,34 L30,41 L30,41 Z M18,22 L8,12 C6.896,10.896 6.896,9.105 8,8 C9.104,6.896 10.896,6.896 12,8 L20,16 L28,16 L36,8 C37.104,6.896 38.896,6.896 40,8 C41.105,9.105 41.105,10.896 40,12 L30,22 L30,27 L28,29 L26,27 L24,29 L22,27 L20,29 L18,27 L18,22 L18,22 Z M30,6 C30,9.314 27.314,12 24,12 C20.686,12 18,9.314 18,6 C18,2.687 20.686,0 24,0 C27.314,0 30,2.687 30,6 L30,6 Z M40,8 L48,0 L40,8 Z M8,8 L0,0 L8,8 Z M9,54 L5,58 L9,54 Z M39,54 L43,58 L39,54 Z M38.243,22.758 C39.023,23.538 39.023,24.805 38.242,25.586 C37.462,26.367 34,27 34,27 C34,27 34.634,23.539 35.414,22.758 C36.195,21.977 37.462,21.977 38.243,22.758 L38.243,22.758 Z M38.243,39.242 C39.023,38.462 39.023,37.195 38.242,36.414 C37.462,35.633 34,35 34,35 C34,35 34.634,38.461 35.414,39.242 C36.195,40.023 37.462,40.023 38.243,39.242 L38.243,39.242 Z M1,31 C1,32.657 2.343,34 4,34 C5.657,34 10,31 10,31 C10,31 5.657,28 4,28 C2.343,28 1,29.343 1,31 L1,31 Z M47,31 C47,32.657 45.656,34 44,34 C42.343,34 38,31 38,31 C38,31 42.344,28 44,28 C45.657,28 47,29.343 47,31 L47,31 Z M9.757,22.758 C8.977,23.538 8.977,24.805 9.758,25.586 C10.538,26.367 14,27 14,27 C14,27 13.366,23.539 12.586,22.758 C11.805,21.977 10.538,21.977 9.757,22.758 L9.757,22.758 Z M9.757,39.242 C8.977,38.462 8.977,37.195 9.758,36.414 C10.538,35.633 14,35 14,35 C14,35 13.366,38.461 12.586,39.242 C11.805,40.023 10.538,40.023 9.757,39.242 L9.757,39.242 Z" id="Imported-Layers"></path>
                            </g>
                        </g>
                    </g>
                </g>
            </g>
        </g>
    </g>
</svg>