<?xml version="1.0" encoding="UTF-8" standalone="no"?>
<svg width="60px" height="60px" viewBox="0 0 60 60" version="1.1" xmlns="http://www.w3.org/2000/svg" xmlns:xlink="http://www.w3.org/1999/xlink" xmlns:sketch="http://www.bohemiancoding.com/sketch/ns">
    <title>Imported Layers</title>
    <description>Created with Sketch (http://www.bohemiancoding.com/sketch)</description>
    <defs></defs>
    <g id="Page-1" stroke="none" stroke-width="1" fill="none" fill-rule="evenodd" sketch:type="MSPage">
        <g id="iePayback" sketch:type="MSArtboardGroup" transform="translate(-574.000000, -642.000000)" stroke-width="2" stroke="#176437">
            <g id="Form" sketch:type="MSLayerGroup" transform="translate(261.000000, 317.000000)">
                <g id="versions" transform="translate(40.000000, 267.000000)" sketch:type="MSShapeGroup">
                    <g transform="translate(0.000000, 46.000000)" id="Rectangle-6-copy-+-7">
                        <g transform="translate(254.000000, 0.000000)">
                            <g id="7" transform="translate(20.000000, 13.000000)">
                                <g id="Imported-Layers">
                                    <path d="M0,58 L0,54 C0,50.803 2.034,47.728 5.043,46.652 L18,41 L18,38 L31,38 L31,41 L44.869,46.652 C47.88,47.728 50,50.803 50,54 L50,58" id="Stroke-1" stroke-linecap="square"></path>
                                    <path d="M53.201,27.628 C59.599,21.225 59.6,11.401 53.201,5 C46.799,-1.402 36.973,-1.402 30.574,5 C25.75,9.82 23.89,17.453 26.332,23.385 L23.503,26.213 L32.695,35.406 L35.523,32.577 C41.459,35.018 48.376,32.447 53.201,27.628 L53.201,27.628 Z" id="Stroke-2" stroke-linecap="round"></path>
                                    <path d="M45.424,26.921 C42.684,29.663 36.143,28.953 32.695,25.506 C29.248,22.061 28.539,15.518 31.281,12.779 L45.424,26.921 L45.424,26.921 Z" id="Stroke-3" stroke-linecap="round" stroke-linejoin="round"></path>
                                    <path d="M40,5 L40,13 M45,9 L36,9 M49,13 L49,22 M53,18 L45,18" id="Stroke-4" stroke-linecap="round"></path>
                                    <path d="M1,25 L20,30.914 M19,26 L7.269,14.549 M17,34 L1.031,38" id="Stroke-5" stroke-linecap="round" stroke-dasharray="2.154,4.309"></path>
                                </g>
                            </g>
                        </g>
                    </g>
                </g>
            </g>
        </g>
    </g>
</svg>