<?xml version="1.0" encoding="UTF-8" standalone="no"?>
<svg width="61px" height="60px" viewBox="0 0 61 60" version="1.1" xmlns="http://www.w3.org/2000/svg" xmlns:xlink="http://www.w3.org/1999/xlink" xmlns:sketch="http://www.bohemiancoding.com/sketch/ns">
    <title>Imported Layers</title>
    <description>Created with Sketch (http://www.bohemiancoding.com/sketch)</description>
    <defs></defs>
    <g id="Page-1" stroke="none" stroke-width="1" fill="none" fill-rule="evenodd" sketch:type="MSPage">
        <g id="iePayback" sketch:type="MSArtboardGroup" transform="translate(-700.000000, -642.000000)" stroke-width="2" stroke="#176437">
            <g id="Form" sketch:type="MSLayerGroup" transform="translate(261.000000, 317.000000)">
                <g id="versions" transform="translate(40.000000, 267.000000)" sketch:type="MSShapeGroup">
                    <g transform="translate(0.000000, 46.000000)" id="Rectangle-6-copy-2-+-8">
                        <g transform="translate(383.000000, 0.000000)">
                            <g id="8" transform="translate(17.000000, 13.000000)">
                                <g id="Imported-Layers">
                                    <path d="M59,58 C42.983,58 30,45.017 30,29 C30,12.983 42.983,0 59,0 L59,58 Z M17,13 L15,13 L17,13 Z M21,13 L19,13 L21,13 Z M25,13 L23,13 L25,13 Z M29,13 L27,13 L29,13 Z M12,16 L3,16 C1.343,16 0,14.657 0,13 C0,11.343 1.343,10 3,10 L12,10 L12,16 L12,16 Z M4,10 L4,16 L4,10 Z" id="Stroke-1" stroke-linejoin="round"></path>
                                    <path d="M26,3 C27.172,4.172 28,9 28,9 C28,9 23.172,8.172 22,7 C20.828,5.828 20.828,4.172 22,3 C23.172,1.829 24.828,1.828 26,3 L26,3 Z M26,23 C27.172,21.828 28,17 28,17 C28,17 23.172,17.828 22,19 C20.828,20.172 20.828,21.828 22,23 C23.172,24.171 24.828,24.172 26,23 L26,23 Z M34,2 C34,3.656 32,6 32,6 C32,6 30,3.657 30,2 C30,0.342 31,0 32,0 C33,0 34,0.342 34,2 L34,2 Z" id="Stroke-2"></path>
                                    <path d="M41,15 L53,27 M53,15 L41,27" id="Stroke-3" stroke-linecap="round"></path>
                                    <path d="M59,36 L38,36 C38,41.702 46.298,52 59,52" id="Stroke-4"></path>
                                </g>
                            </g>
                        </g>
                    </g>
                </g>
            </g>
        </g>
    </g>
</svg>