<?xml version="1.0" encoding="UTF-8" standalone="no"?>
<svg width="59px" height="59px" viewBox="0 0 59 59" version="1.1" xmlns="http://www.w3.org/2000/svg" xmlns:xlink="http://www.w3.org/1999/xlink" xmlns:sketch="http://www.bohemiancoding.com/sketch/ns">
    <title>Imported Layers</title>
    <description>Created with Sketch (http://www.bohemiancoding.com/sketch)</description>
    <defs></defs>
    <g id="Page-1" stroke="none" stroke-width="1" fill="none" fill-rule="evenodd" sketch:type="MSPage">
        <g id="iePayback" sketch:type="MSArtboardGroup" transform="translate(-322.000000, -778.000000)" stroke="#176437" stroke-width="2" stroke-linecap="round" stroke-linejoin="round">
            <g id="Form" sketch:type="MSLayerGroup" transform="translate(261.000000, 317.000000)">
                <g id="versions" transform="translate(40.000000, 267.000000)" sketch:type="MSShapeGroup">
                    <g transform="translate(0.000000, 46.000000)" id="Rectangle-6-+-9">
                        <g transform="translate(0.000000, 137.000000)">
                            <g id="9" transform="translate(22.000000, 12.000000)">
                                <path d="M22.9999788,22 L22.9999788,36.969 L17.9999788,39.498 L17.9999788,51 M27.9999788,51 L27.9999788,39.498 L22.9999788,36.969 L22.9999788,18 M18.9999788,33 L26.9999788,33 M18.9999788,28 L27.9999788,28 M22.9999788,22 L18.9999788,22 L8.73997875,28.784 M48.9999788,36 L48.9999788,39 M51.9999788,36 L51.9999788,39 M43.9999788,3 L37.9999788,10 L44.9999788,10 L40.9999788,15 M1.99997875,3 L7.99997875,10 L0.999978753,10 L4.99997875,15 M22.9999788,22 L26.9999788,22 L37.2599788,28.784 M50.4999788,31 C54.0899788,31 56.9999788,33.91 56.9999788,37.5 C56.9999788,41.09 54.0899788,44 50.4999788,44 C47.4399788,44 44.8569788,41.885 44.1639788,39.036 M22.9999788,0 C27.9709788,0 31.9999788,4.029 31.9999788,9 C31.9999788,14.783 26.9999788,17 26.9999788,17 L28.5199788,17 C30.1369788,17 31.7149788,17.484 33.0529788,18.391 L43.1489788,25.236 C45.7689788,26.777 46.7479788,30.084 45.3889788,32.803 C43.9609788,35.659 40.4889788,36.816 37.6339788,35.389 L32.9999788,33 L32.9999788,53 C32.9999788,55 31.9999788,57 28.9999788,57 L26.9999788,57 C24.7909788,57 22.9999788,55.209 22.9999788,53 L22.9999788,50 M22.9999788,0 C18.0289788,0 13.9999788,4.029 13.9999788,9 C13.9999788,14.783 18.9999788,17 18.9999788,17 L17.4789788,17 C15.8629788,17 14.2849788,17.484 12.9469788,18.391 L2.85097875,25.236 C0.229978753,26.777 -0.748021247,30.084 0.610978753,32.803 C2.03897875,35.659 5.51097875,36.816 8.36597875,35.389 L12.9999788,33 L12.9999788,53 C12.9999788,55 13.9999788,57 16.9999788,57 L18.9999788,57 C21.2089788,57 22.9999788,55.209 22.9999788,53 L22.9999788,46 M17.9999788,6 L20.9999788,9 M20.9999788,6 L17.9999788,9 M24.9999788,6 L27.9999788,9 M27.9999788,6 L24.9999788,9" id="Imported-Layers"></path>
                            </g>
                        </g>
                    </g>
                </g>
            </g>
        </g>
    </g>
</svg>