<?xml version="1.0" encoding="UTF-8" standalone="no"?>
<svg width="58px" height="59px" viewBox="0 0 58 59" version="1.1" xmlns="http://www.w3.org/2000/svg" xmlns:xlink="http://www.w3.org/1999/xlink" xmlns:sketch="http://www.bohemiancoding.com/sketch/ns">
    <title>Imported Layers</title>
    <description>Created with Sketch (http://www.bohemiancoding.com/sketch)</description>
    <defs></defs>
    <g id="Page-1" stroke="none" stroke-width="1" fill="none" fill-rule="evenodd" sketch:type="MSPage">
        <g id="iePayback" sketch:type="MSArtboardGroup" transform="translate(-701.000000, -778.000000)" stroke="#176437" stroke-width="2" stroke-linecap="round" stroke-linejoin="round">
            <g id="Form" sketch:type="MSLayerGroup" transform="translate(261.000000, 317.000000)">
                <g id="versions" transform="translate(40.000000, 267.000000)" sketch:type="MSShapeGroup">
                    <g transform="translate(0.000000, 46.000000)" id="Rectangle-6-copy-2-+-compatibility">
                        <g transform="translate(383.000000, 137.000000)">
                            <g id="compatibility" transform="translate(8.000000, 12.000000)">
                                <path d="M27.229,45.9897492 L21.704,57.0137492 L27.229,45.9897492 Z M10,39.9527492 C10,39.9527492 20.244,30.2217492 27.542,31.1597492 C36.655,32.3317492 41.017,40.4227492 44.336,43.7417492 C46.733,46.1397492 45.746,48.7427492 43,49.9527492 C39.737,51.3907492 40.05,48.3287492 36,46.9527492 C34.045,46.2877492 27.125,45.8727492 27.125,45.8727492 C27.125,45.8727492 22,43.7037492 23.372,40.5427492 L10,39.9527492 Z M24.312,31.3277492 C24.312,31.3277492 23.58,28.2157492 25.562,25.0617492 C26.552,27.3817492 29.391,28.4037492 29.625,31.4527492 L24.312,31.3277492 Z M63.404,2.43974916 L45.097,19.4727492 C45.097,19.4727492 43.544,21.0487492 45.004,22.4817492 C46.661,24.1097492 48.157,23.3937492 48.157,23.3937492 C48.294,23.2227492 63.404,2.43974916 63.404,2.43974916 L63.404,2.43974916 Z M32.285,32.1117492 L38.562,25.4527492 L32.285,32.1117492 Z M38.384,36.2947492 L44.562,29.4527492 L38.384,36.2947492 Z M41.512,9.47674916 C41.512,13.6217492 38.15,16.9827492 34.006,16.9827492 C29.86,16.9827492 26.5,13.6217492 26.5,9.47674916 C26.5,5.33074916 29.86,1.97074916 34.006,1.97074916 C38.15,1.97074916 41.512,5.33074916 41.512,9.47674916 L41.512,9.47674916 Z M51.805,18.9167492 C54.656,20.9527492 61.364,25.9927492 63,27.9527492 C63,27.9527492 63.914,29.9527492 64.914,33.9527492 C66.081,38.6217492 61.422,39.3767492 59.953,35.5947492 L58.318,31.3277492 C57.807,30.0097492 56.96,29.6637492 54.944,28.3807492 C54.193,27.9027492 53.184,28.3947492 53.631,29.9127492 L55.812,37.3227492 C56.877,40.9427492 51.431,42.8487492 50.152,39.1277492 C47.741,32.1137492 47.83,31.7907492 46.755,30.9487492 L35,22.9527492 C34.389,22.4637492 33.782,21.9527492 33,21.9527492 L23,21.9527492 C18,21.9527492 18,15.9527492 23,15.9527492 L30,15.9527492 L51.805,18.9167492 Z M41.356,11.0927492 L45.346,1.82274916 C46.755,-1.45125084 52,-0.0472508415 50.219,3.90674916 L46.943,11.6147492 C46.33,13.0567492 46.769,14.7317492 48.01,15.6897492 L48.47,16.0447492 L41.356,11.0927492 Z" id="Imported-Layers"></path>
                            </g>
                        </g>
                    </g>
                </g>
            </g>
        </g>
    </g>
</svg>