<?xml version="1.0" encoding="UTF-8" standalone="no"?>
<svg width="824px" height="86px" viewBox="0 0 824 86" version="1.1" xmlns="http://www.w3.org/2000/svg" xmlns:xlink="http://www.w3.org/1999/xlink" xmlns:sketch="http://www.bohemiancoding.com/sketch/ns">
    <title>Slice 1</title>
    <description>Created with Sketch (http://www.bohemiancoding.com/sketch)</description>
    <defs></defs>
    <g id="Page-1" stroke="none" stroke-width="1" fill="none" fill-rule="evenodd" sketch:type="MSPage">
        <g id="title" sketch:type="MSLayerGroup" transform="translate(-16.000000, -9.000000)" fill="#279053">
            <g id="Page-1" sketch:type="MSShapeGroup">
                <g id="iePayback">
                    <g id="ie-payback">
                        <path d="M40.32,13.4 L40.32,85.4 L30.72,95 L16.32,95 L16.32,23 L25.92,13.4 L40.32,13.4 Z M37.92,83 L37.92,15.8 L28.32,15.8 L28.32,83 L37.92,83 Z M125.76,37.4 L96.96,37.4 L96.96,49.4 L125.76,49.4 L125.76,63.8 L118.56,71 L135.36,71 L135.36,85.4 L125.76,95 L72.96,95 L72.96,23 L82.56,13.4 L135.36,13.4 L135.36,27.8 L125.76,37.4 Z M94.56,25.4 L132.96,25.4 L132.96,15.8 L84.96,15.8 L84.96,83 L132.96,83 L132.96,73.4 L94.56,73.4 L94.56,61.4 L123.36,61.4 L123.36,51.8 L94.56,51.8 L94.56,25.4 Z M274.464,58.52 L264.864,68.12 C259.615974,73.2400256 253.408036,75.8 246.24,75.8 L243.84,75.8 L243.84,85.4 L234.24,95 L219.84,95 L219.84,23 L229.44,13.4 L255.84,13.4 C263.136036,13.4 269.359974,15.9759742 274.512,21.128 C279.664026,26.2800258 282.24,32.5039635 282.24,39.8 C282.24,47.0960365 279.648026,53.3359741 274.464,58.52 Z M255.84,15.8 L231.84,15.8 L231.84,83 L241.44,83 L241.44,63.8 L255.84,63.8 C262.432033,63.8 268.079976,61.4640234 272.784,56.792 C277.488024,52.1199766 279.84,46.4560333 279.84,39.8 C279.84,33.1439667 277.488024,27.4800234 272.784,22.808 C268.079976,18.1359766 262.432033,15.8 255.84,15.8 Z M241.44,54.2 L241.44,25.4 L255.84,25.4 C259.80802,25.4 263.199986,26.8079859 266.016,29.624 C268.832014,32.4400141 270.24,35.8319802 270.24,39.8 C270.24,43.7680198 268.832014,47.1599859 266.016,49.976 C263.199986,52.7920141 259.80802,54.2 255.84,54.2 L241.44,54.2 Z M255.84,51.8 C256.288002,51.8 257.023995,51.7360006 258.048,51.608 C258.176001,50.7119955 258.24,49.9760029 258.24,49.4 C258.24,46.0719834 257.072012,43.2400117 254.736,40.904 C252.399988,38.5679883 249.568017,37.4 246.24,37.4 L243.84,37.4 L243.84,51.8 L255.84,51.8 Z M378.72,85.4 L369.12,95 L352.704,95 L346.08,83 L313.344,83 L312.096,85.4 L302.496,95 L286.08,95 L327.552,18.968 L337.152,9.464 L378.72,85.4 Z M357.12,71 L363.744,83 L374.688,83 L337.152,14.456 L299.712,83 L310.656,83 L317.184,71 L357.12,71 Z M351.936,61.4 L322.464,61.4 L337.152,34.424 L351.936,61.4 Z M333.024,59 L329.76,53.048 L326.496,59 L333.024,59 Z M447.456,13.4 L464.448,13.4 L435.456,59.576 L435.456,85.4 L425.856,95 L411.456,95 L411.456,69.176 L382.56,23 L392.16,13.4 L409.152,13.4 L426.528,41.144 L437.856,23 L447.456,13.4 Z M460.128,15.8 L448.8,15.8 L428.256,48.44 L407.808,15.8 L396.48,15.8 L423.456,58.904 L423.456,83 L433.056,83 L433.056,58.904 L460.128,15.8 Z M548.352,79.064 L538.752,88.76 C534.463979,92.9200208 529.376029,95 523.488,95 L482.688,95 L482.688,23 L492.288,13.4 L528.288,13.4 C534.24003,13.4 539.327979,15.5119789 543.552,19.736 C547.776021,23.9600211 549.888,29.0479702 549.888,35 C549.888,39.2880214 548.736012,43.2239821 546.432,46.808 C551.936028,51.1600218 554.688,56.8239651 554.688,63.8 C554.688,69.7520298 552.576021,74.8399789 548.352,79.064 Z M542.976,47.384 C545.984015,43.7359818 547.488,39.608023 547.488,35 C547.488,29.7519738 545.616019,25.2400189 541.872,21.464 C538.127981,17.6879811 533.600027,15.8 528.288,15.8 L494.688,15.8 L494.688,83 L533.088,83 C538.400027,83 542.927981,81.1280187 546.672,77.384 C550.416019,73.6399813 552.288,69.1120266 552.288,63.8 C552.288,60.3439827 551.440008,57.1760144 549.744,54.296 C548.047992,51.4159856 545.792014,49.1120086 542.976,47.384 Z M528.288,25.4 C530.912013,25.4 533.167991,26.3439906 535.056,28.232 C536.944009,30.1200094 537.888,32.3759869 537.888,35 C537.888,37.6240131 536.944009,39.8799906 535.056,41.768 C533.167991,43.6560094 530.912013,44.6 528.288,44.6 L504.288,44.6 L504.288,25.4 L528.288,25.4 Z M506.688,37.4 L506.688,42.2 L525.504,42.2 C524.991997,40.791993 524.112006,39.6400045 522.864,38.744 C521.615994,37.8479955 520.224008,37.4 518.688,37.4 L506.688,37.4 Z M504.288,73.4 L504.288,54.2 L533.088,54.2 C535.712013,54.2 537.967991,55.1439906 539.856,57.032 C541.744009,58.9200094 542.688,61.1759869 542.688,63.8 C542.688,66.4240131 541.744009,68.6799906 539.856,70.568 C537.967991,72.4560094 535.712013,73.4 533.088,73.4 L504.288,73.4 Z M530.304,71 C529.791997,69.591993 528.912006,68.4400045 527.664,67.544 C526.415994,66.6479955 525.024008,66.2 523.488,66.2 L515.136,66.296 C509.503972,66.296 506.656,66.2640003 506.592,66.2 L506.592,71 L530.304,71 Z M658.848,85.4 L649.248,95 L632.832,95 L626.208,83 L593.472,83 L592.224,85.4 L582.624,95 L566.208,95 L607.68,18.968 L617.28,9.464 L658.848,85.4 Z M637.248,71 L643.872,83 L654.816,83 L617.28,14.456 L579.84,83 L590.784,83 L597.312,71 L637.248,71 Z M632.064,61.4 L602.592,61.4 L617.28,34.424 L632.064,61.4 Z M613.152,59 L609.888,53.048 L606.624,59 L613.152,59 Z M735.168,62.36 L736.608,60.44 L748.032,69.176 L746.592,71.096 C745.823996,72.1840054 744.736007,73.431993 743.328,74.84 L733.728,84.44 C726.687965,91.4800352 718.20805,95 708.288,95 C698.36795,95 689.888035,91.4800352 682.848,84.44 C675.807965,77.3999648 672.288,68.9200496 672.288,59 C672.288,49.0799504 675.807965,40.6000352 682.848,33.56 C683.296002,33.0479974 684.175993,32.1520064 685.488,30.872 C686.800007,29.5919936 688.223992,28.1840077 689.76,26.648 L692.448,23.96 C699.488035,16.9199648 707.96795,13.4 717.888,13.4 C723.648029,13.4 729.039975,14.6799872 734.064,17.24 C739.088025,19.8000128 743.263983,23.2879779 746.592,27.704 L748.032,29.624 L738.432,39.224 L727.008,47.96 L725.568,46.04 C721.279979,40.2799712 715.520036,37.4 708.288,37.4 C704.895983,37.4 701.664015,38.1679923 698.592,39.704 C697.055992,42.7760154 696.288,46.007983 696.288,49.4 C696.288,55.3520298 698.399979,60.4399789 702.624,64.664 C706.848021,68.8880211 711.93597,71 717.888,71 C725.120036,71 730.879979,68.1200288 735.168,62.36 Z M717.888,73.4 C711.295967,73.4 705.648024,71.0640234 700.944,66.392 C696.239976,61.7199766 693.888,56.0560333 693.888,49.4 C693.888,42.7439667 696.239976,37.0800234 700.944,32.408 C705.648024,27.7359766 711.295967,25.4 717.888,25.4 C721.728019,25.4 725.327983,26.2479915 728.688,27.944 C732.048017,29.6400085 734.847989,31.991985 737.088,35 L744.672,29.144 C741.535984,25.0479795 737.632023,21.800012 732.96,19.4 C728.287977,16.999988 723.264027,15.8 717.888,15.8 C708.607954,15.8 700.688033,19.0799672 694.128,25.64 C687.567967,32.2000328 684.288,40.1199536 684.288,49.4 C684.288,58.6800464 687.567967,66.5999672 694.128,73.16 C700.688033,79.7200328 708.607954,83 717.888,83 C723.264027,83 728.287977,81.800012 732.96,79.4 C737.632023,76.999988 741.535984,73.7520205 744.672,69.656 L737.088,63.8 C734.847989,66.808015 732.048017,69.1599915 728.688,70.856 C725.327983,72.5520085 721.728019,73.4 717.888,73.4 Z M840.192,85.4 L830.592,95 L813.6,95 L795.072,65.336 L795.072,85.4 L785.472,95 L771.072,95 L771.072,23 L780.672,13.4 L795.072,13.4 L795.072,39.896 L810.528,23 L820.128,13.4 L839.712,13.4 L813.216,42.296 L840.192,85.4 Z M824.544,83 L835.872,83 L810.24,42.008 L834.24,15.8 L821.184,15.8 L792.672,46.904 L792.672,15.8 L783.072,15.8 L783.072,83 L792.672,83 L792.672,61.016 L803.424,49.304 L824.544,83 Z"></path>
                    </g>
                </g>
            </g>
        </g>
    </g>
</svg>